# xmcd
#
# Track frame offsets: 
#        150
#        16747
#        33627
#        48765
#        63300
#        75617
#        90592
#        107820
#        120195
#        134922
#
# Disc length: 2137 seconds
#
# Revision: 2
# Processed by: cddbd v1.5.1PL0 Copyright (c) Steve Scherf et al.
# Submitted via: ExactAudioCopy v0.95a5
#
DISCID=7808570a
DTITLE=Wade Hayes - Highways and Heartaches
DYEAR=2000
DGENRE=Country
TTITLE0=Up North (Down South, Back East, Out West)
TTITLE1=Life After Lovin' You
TTITLE2=Goodbye Is The Wrong Way To Go
TTITLE3=What's It Gonna Take
TTITLE4=She Used To Say That To Me
TTITLE5=Up And Down
TTITLE6=You Just Keep On
TTITLE7=That's What Honky Tonks Are For
TTITLE8=You Were, You Are, You'll Always Be
TTITLE9=I'm Lonesome Too
EXTD=2000 Sony Music
EXTT0=
EXTT1=
EXTT2=
EXTT3=
EXTT4=
EXTT5=
EXTT6=
EXTT7=
EXTT8=
EXTT9=
PLAYORDER=
